<svg xmlns="http://www.w3.org/2000/svg" viewBox="0 0 36 36"><path d="M21.446 18A3.445 3.445 0 1118 14.555 3.445 3.445 0 0121.446 18zm0 0"/><path d="M26.058 11.904a3.423 3.423 0 00-1.962-1.962 5.719 5.719 0 00-1.919-.356c-1.09-.05-1.417-.06-4.177-.06s-3.087.01-4.177.06a5.722 5.722 0 00-1.919.356 3.424 3.424 0 00-1.962 1.962 5.721 5.721 0 00-.356 1.919c-.05 1.09-.06 1.417-.06 4.177s.011 3.087.06 4.177a5.719 5.719 0 00.356 1.919 3.423 3.423 0 001.962 1.962 5.711 5.711 0 001.919.356c1.09.05 1.416.06 4.176.06s3.087-.01 4.177-.06a5.711 5.711 0 001.919-.356 3.423 3.423 0 001.962-1.962 5.724 5.724 0 00.356-1.919c.05-1.09.06-1.417.06-4.177s-.01-3.087-.06-4.177a5.712 5.712 0 00-.356-1.919zm-8.057 11.4a5.307 5.307 0 115.307-5.307A5.308 5.308 0 0118 23.308zm5.517-9.585a1.24 1.24 0 111.24-1.24 1.24 1.24 0 01-1.24 1.244zm0 0"/><path d="M18 0a18 18 0 1018 18A18 18 0 0018 0zm10.274 22.261a7.583 7.583 0 01-.48 2.509 5.285 5.285 0 01-3.023 3.023 7.588 7.588 0 01-2.509.48c-1.1.05-1.454.062-4.261.062s-3.159-.012-4.262-.062a7.588 7.588 0 01-2.509-.48 5.285 5.285 0 01-3.023-3.023 7.581 7.581 0 01-.48-2.509c-.051-1.1-.063-1.455-.063-4.262s.012-3.159.062-4.261a7.584 7.584 0 01.48-2.509 5.289 5.289 0 013.024-3.022 7.59 7.59 0 012.509-.48c1.1-.05 1.454-.062 4.261-.062s3.159.012 4.261.063a7.592 7.592 0 012.509.48 5.286 5.286 0 013.023 3.023 7.582 7.582 0 01.481 2.509c.05 1.1.062 1.454.062 4.261s-.012 3.158-.062 4.26zm0 0"/></svg>