<svg xmlns="http://www.w3.org/2000/svg" viewBox="0 0 36 36"><path d="M23.438 32.668q-3.2.521-6.422.961 3.223-.44 6.422-.961zm0 0"/><path d="M22.435 31.793c-1.02.188-2.039.359-3.059.535 1.018-.176 2.037-.348 3.059-.535zm0 0"/><path d="M23.196 34.34q-3.744.422-7.527.742 3.779-.316 7.527-.742zm0 0"/><path d="M21.859 33.738zm0 0"/><path d="M22.752 30.41c-.9.191-1.8.383-2.7.566.899-.183 1.802-.376 2.7-.566zm0 0"/><path d="M23.705 23.403c-.727.207-1.453.4-2.18.605.727-.203 1.453-.398 2.18-.605zm0 0"/><path d="M23.426 25.253c-.789.207-1.582.418-2.375.617q1.189-.299 2.375-.617zm0 0"/><path d="M23.029 27.452c-.836.2-1.68.379-2.523.566.843-.187 1.687-.371 2.523-.566zm0 0"/><path d="M21.25 35.09q-2.021.17-4.047.3 2.027-.13 4.047-.3zm0 0"/><path d="M36 18a18 18 0 10-18 18h.316V21.984h-3.867v-4.507h3.867V14.16c0-3.846 2.348-5.94 5.779-5.94a31.834 31.834 0 013.467.177v4.02H25.2c-1.867 0-2.228.887-2.228 2.189v2.87h4.463l-.582 4.507h-3.884V35.3A18.01 18.01 0 0036 18zm0 0"/><path d="M22.728 35.43q-4 .258-8.023.4 4.025-.136 8.023-.4zm0 0"/><path d="M20.54 35.836q-2.121.07-4.25.105 2.127-.035 4.25-.105zm0 0"/></svg>