<svg xmlns="http://www.w3.org/2000/svg" viewBox="0 0 14.005 14"><g transform="translate(-.001 -.086)"><path d="M13.984 12.637l-.808-3.883.808-3.883a1.23 1.23 0 00-.8-1.378V1.316a1.232 1.232 0 00-1.23-1.23H2.082a1.232 1.232 0 00-1.23 1.23v2.167a1.231 1.231 0 00-.828 1.388l.807 3.883-.811 3.9a1.23 1.23 0 001.214 1.433h11.539a1.23 1.23 0 001.214-1.433zM2.082.906h9.871a.411.411 0 01.41.41v2.106H1.672V1.316a.411.411 0 01.41-.41zm11 12.214a.4.4 0 01-.313.145H1.234a.41.41 0 01-.406-.471l.755-3.631h1.308a.41.41 0 100-.82H1.584l-.755-3.63a.41.41 0 01.406-.471h11.538a.41.41 0 01.406.471l-.755 3.631h-1.308a.41.41 0 100 .82h1.307l.755 3.631a.4.4 0 01-.093.326z"/><circle cx=".429" cy=".429" r=".429" transform="translate(2.485 1.801)"/><circle cx=".429" cy=".429" r=".429" transform="translate(10.692 1.801)"/><path d="M7.125 7.413a1.715 1.715 0 00-3.333-.572.429.429 0 00.809.286.858.858 0 11.809 1.144h-.533a.429.429 0 000 .858h.533a.858.858 0 11-.809 1.144.429.429 0 00-.809.286 1.715 1.715 0 102.751-1.858 1.712 1.712 0 00.582-1.288z"/><path d="M9.68 5.75a.429.429 0 00-.44.021l-1.286.858a.43.43 0 00.476.714l.62-.413v4.345a.429.429 0 10.858 0V6.129a.429.429 0 00-.228-.379z"/></g></svg>