<svg xmlns="http://www.w3.org/2000/svg" viewBox="0 0 24.037 20.39"><g><g><path d="M20.567 11.008h-1.859a4.835 4.835 0 01.293 1.662v7.026a2.072 2.072 0 01-.119.694h3.073a2.084 2.084 0 002.082-2.082v-3.83a3.474 3.474 0 00-3.47-3.47z"/></g></g><g><g><path d="M5.036 12.67a4.835 4.835 0 01.293-1.662H3.47A3.474 3.474 0 000 14.478v3.83a2.084 2.084 0 002.082 2.079h3.073a2.072 2.072 0 01-.119-.694z"/></g></g><g><g><path d="M14.144 9.2H9.895a3.474 3.474 0 00-3.47 3.47v7.026a.694.694 0 00.694.694h9.8a.694.694 0 00.694-.694V12.67a3.474 3.474 0 00-3.469-3.47z"/></g></g><g><g><path d="M12.018 0a4.172 4.172 0 104.173 4.173A4.178 4.178 0 0012.018 0z"/></g></g><g><g><path d="M4.691 3.89a3.119 3.119 0 103.121 3.121A3.124 3.124 0 004.691 3.89z"/></g></g><g><g><path d="M19.346 3.89a3.121 3.121 0 103.121 3.121 3.124 3.124 0 00-3.121-3.121z"/></g></g></svg>