<svg xmlns="http://www.w3.org/2000/svg" viewBox="0 0 13.138 14.333"><g><path d="M12.691 2.389A1.941 1.941 0 1110.75.448a1.941 1.941 0 011.941 1.941zm0 0"/><path d="M10.75 4.778a2.389 2.389 0 112.389-2.389 2.391 2.391 0 01-2.389 2.389zm0-3.882a1.493 1.493 0 101.493 1.493A1.495 1.495 0 0010.75.9zm0 0"/><path d="M12.691 11.944a1.941 1.941 0 11-1.941-1.941 1.941 1.941 0 011.941 1.941zm0 0"/><path d="M10.75 14.333a2.389 2.389 0 112.389-2.389 2.391 2.391 0 01-2.389 2.389zm0-3.882a1.493 1.493 0 101.493 1.493 1.495 1.495 0 00-1.493-1.493zm0 0"/><path d="M4.33 7.167a1.941 1.941 0 11-1.941-1.941A1.941 1.941 0 014.33 7.167zm0 0"/><path d="M2.389 9.556a2.389 2.389 0 112.389-2.389 2.391 2.391 0 01-2.389 2.389zm0-3.882a1.493 1.493 0 101.493 1.493 1.495 1.495 0 00-1.493-1.493zm0 0"/><path d="M3.799 6.88a.6.6 0 01-.3-1.116L9.04 2.605a.6.6 0 11.591 1.038L4.09 6.802a.593.593 0 01-.295.078zm0 0"/><path d="M9.339 11.807a.593.593 0 01-.3-.078L3.498 8.57a.6.6 0 01.591-1.038l5.541 3.159a.6.6 0 01-.3 1.116zm0 0"/></g></svg>