<svg xmlns="http://www.w3.org/2000/svg" viewBox="0 0 25 15.39"><g><g><path d="M24.988 10.881l-.294-2.461a.488.488 0 00-.534-.428 1.8 1.8 0 01-.427-3.576.488.488 0 00.419-.542l-.294-2.461a1.6 1.6 0 00-1.782-1.4L4.926 2.059a1.592 1.592 0 00-1.062.591H1.6A1.605 1.605 0 000 4.25v2.479a.488.488 0 00.48.488 1.8 1.8 0 010 3.6.488.488 0 00-.48.488v2.479a1.6 1.6 0 001.6 1.6h17.275a1.6 1.6 0 001.6-1.6v-.753l3.108-.371a1.6 1.6 0 001.4-1.782zM19.5 12.167v1.62a.627.627 0 01-.627.627h-3.025v-.917a.489.489 0 00-.977 0v.915H1.6a.627.627 0 01-.627-.627v-2.04a2.761 2.761 0 001.452-.779 2.777 2.777 0 000-3.9 2.761 2.761 0 00-1.448-.769v-2.04a.627.627 0 01.627-.627h13.267v5.946a.489.489 0 00.977 0V3.63h3.028a.627.627 0 01.627.627v2.04a2.778 2.778 0 000 5.455v.419zm4.387-.708a.623.623 0 01-.418.235l-2.992.357v-.742a.488.488 0 00-.48-.488 1.8 1.8 0 010-3.6.488.488 0 00.48-.488V4.254a1.6 1.6 0 00-1.6-1.6H8.218L22.193.986a.627.627 0 01.7.548l.242 2.026a2.778 2.778 0 00.646 5.416l.242 2.026a.623.623 0 01-.134.457z"/><path d="M15.81 11.348a.494.494 0 00-.045-.084.466.466 0 00-.061-.074.49.49 0 00-.074-.061.484.484 0 00-.084-.045.5.5 0 00-.091-.028.479.479 0 00-.282.028.495.495 0 00-.158.105.469.469 0 00-.061.074.494.494 0 00-.045.084.51.51 0 00-.028.092.493.493 0 000 .19.493.493 0 00.028.091.482.482 0 00.045.085.47.47 0 00.061.074.464.464 0 00.074.061.5.5 0 00.084.045.469.469 0 00.091.028.471.471 0 00.191 0 .459.459 0 00.091-.028.519.519 0 00.084-.045.487.487 0 00.074-.061.467.467 0 00.061-.074.482.482 0 00.045-.085.493.493 0 00.028-.091.469.469 0 000-.19.51.51 0 00-.028-.091z"/><path d="M11.809 7.757l-2.145-.312-.959-1.944a.488.488 0 00-.876 0l-.844 1.71-.115.233-.812.118-1.333.194a.488.488 0 00-.271.833l1.292 1.259.26.254-.148.861-.219 1.275a.488.488 0 00.708.515l1.919-1.009 1.918 1.009a.488.488 0 00.708-.515l-.366-2.136 1.552-1.513a.488.488 0 00-.271-.833zM9.662 9.583a.488.488 0 00-.14.432l.243 1.414-1.27-.668a.488.488 0 00-.454 0l-1.27.668.243-1.414a.494.494 0 00-.14-.432l-.6-.586-.426-.415.491-.071.929-.135.043-.009a.488.488 0 00.325-.258l.635-1.287.635 1.287a.488.488 0 00.368.267l1.42.206z"/></g></g></svg>